<svg width="136" height="41" xmlns="http://www.w3.org/2000/svg">

 <g>
  <title>Layer 1</title>
  <g stroke="null">
   <path stroke="null" fill="#999999" d="m66.48521,19.57099l-5.5891,0l-0.0303,-2.3477l5.0741,0c0.8381,0 1.5702,-0.1413 2.1962,-0.4241c0.6261,-0.2827 1.1108,-0.6866 1.4541,-1.2117c0.3534,-0.5351 0.5301,-1.1713 0.5301,-1.9084c0,-0.8078 -0.1565,-1.4642 -0.4695,-1.9691c-0.303,-0.5149 -0.7725,-0.8886 -1.4086,-1.1208c-0.6261,-0.2423 -1.4238,-0.3635 -2.3932,-0.3635l-4.3016,0l0,19.6601l-2.9232,0l0,-22.05325l7.2248,0c1.131,0 2.1407,0.11612 3.0293,0.34837c0.8886,0.22215 1.6409,0.57556 2.2568,1.06025c0.6261,0.47459 1.1007,1.08043 1.4238,1.81753c0.3231,0.7372 0.4847,1.6207 0.4847,2.6507c0,0.9088 -0.2323,1.7317 -0.6968,2.4688c-0.4645,0.7271 -1.1107,1.3228 -1.9387,1.7873c-0.8179,0.4645 -1.7772,0.7624 -2.8778,0.8937l-1.0451,0.7118zm-0.1364,10.3148l-6.6038,0l1.651,-2.378l4.9528,0c0.929,0 1.7166,-0.1616 2.3629,-0.4847c0.6563,-0.3231 1.1562,-0.7775 1.4995,-1.3632c0.3433,-0.5957 0.515,-1.2975 0.515,-2.1053c0,-0.818 -0.1464,-1.5248 -0.4393,-2.1205c-0.2928,-0.5958 -0.7522,-1.0552 -1.3783,-1.3784c-0.6261,-0.3231 -1.4339,-0.4847 -2.4234,-0.4847l-4.1653,0l0.0303,-2.3477l5.695,0l0.6211,0.8482c1.0602,0.0909 1.9589,0.3939 2.696,0.9088c0.7371,0.5049 1.2976,1.1512 1.6813,1.9388c0.3938,0.7876 0.5907,1.656 0.5907,2.6052c0,1.3732 -0.3029,2.5345 -0.9088,3.4836c-0.5958,0.9391 -1.4389,1.6561 -2.5295,2.1508c-1.0905,0.4847 -2.3729,0.7271 -3.8472,0.7271zm10.4359,-8.0125l0,-0.3484c0,-1.1814 0.1717,-2.277 0.515,-3.2867c0.3433,-1.0199 0.8381,-1.9034 1.4844,-2.6507c0.6462,-0.7573 1.4288,-1.343 2.3477,-1.757c0.9189,-0.4241 1.9488,-0.6361 3.0899,-0.6361c1.1511,0 2.1861,0.212 3.105,0.6361c0.929,0.414 1.7166,0.9997 2.3628,1.757c0.6564,0.7473 1.1562,1.6308 1.4995,2.6507c0.3433,1.0097 0.515,2.1053 0.515,3.2867l0,0.3484c0,1.1814 -0.1717,2.277 -0.515,3.2868c-0.3433,1.0097 -0.8431,1.8933 -1.4995,2.6506c-0.6462,0.7472 -1.4288,1.3329 -2.3477,1.757c-0.9088,0.414 -1.9387,0.621 -3.0899,0.621c-1.1511,0 -2.1861,-0.207 -3.105,-0.621c-0.9189,-0.4241 -1.7065,-1.0098 -2.3628,-1.757c-0.6463,-0.7573 -1.1411,-1.6409 -1.4844,-2.6506c-0.3433,-1.0098 -0.515,-2.1054 -0.515,-3.2868zm2.8021,-0.3484l0,0.3484c0,0.8179 0.096,1.5904 0.2878,2.3174c0.1919,0.7169 0.4797,1.3531 0.8634,1.9085c0.3938,0.5553 0.8835,0.9946 1.4692,1.3177c0.5856,0.313 1.2672,0.4695 2.0447,0.4695c0.7675,0 1.439,-0.1565 2.0145,-0.4695c0.5857,-0.3231 1.0704,-0.7624 1.4541,-1.3177c0.3837,-0.5554 0.6715,-1.1916 0.8633,-1.9085c0.202,-0.727 0.303,-1.4995 0.303,-2.3174l0,-0.3484c0,-0.8078 -0.101,-1.5701 -0.303,-2.2871c-0.1918,-0.727 -0.4847,-1.3682 -0.8785,-1.9236c-0.3837,-0.5654 -0.8684,-1.0097 -1.454,-1.3329c-0.5756,-0.3231 -1.2521,-0.4847 -2.0296,-0.4847c-0.7675,0 -1.444,0.1616 -2.0297,0.4847c-0.5755,0.3232 -1.0602,0.7675 -1.454,1.3329c-0.3837,0.5554 -0.6715,1.1966 -0.8634,1.9236c-0.1918,0.717 -0.2878,1.4793 -0.2878,2.2871zm14.889,0.3484l0,-0.3484c0,-1.1814 0.1717,-2.277 0.515,-3.2867c0.3433,-1.0199 0.8381,-1.9034 1.4843,-2.6507c0.6463,-0.7573 1.4288,-1.343 2.3477,-1.757c0.9189,-0.4241 1.9487,-0.6361 3.0897,-0.6361c1.151,0 2.186,0.212 3.105,0.6361c0.929,0.414 1.717,0.9997 2.363,1.757c0.656,0.7473 1.156,1.6308 1.5,2.6507c0.343,1.0097 0.515,2.1053 0.515,3.2867l0,0.3484c0,1.1814 -0.172,2.277 -0.515,3.2868c-0.344,1.0097 -0.844,1.8933 -1.5,2.6506c-0.646,0.7472 -1.429,1.3329 -2.348,1.757c-0.908,0.414 -1.938,0.621 -3.09,0.621c-1.151,0 -2.1856,-0.207 -3.1045,-0.621c-0.9189,-0.4241 -1.7065,-1.0098 -2.3629,-1.757c-0.6462,-0.7573 -1.141,-1.6409 -1.4843,-2.6506c-0.3433,-1.0098 -0.515,-2.1054 -0.515,-3.2868zm2.8021,-0.3484l0,0.3484c0,0.8179 0.0959,1.5904 0.2878,2.3174c0.1918,0.7169 0.4796,1.3531 0.8633,1.9085c0.3938,0.5553 0.8836,0.9946 1.4692,1.3177c0.5853,0.313 1.2673,0.4695 2.0443,0.4695c0.768,0 1.439,-0.1565 2.015,-0.4695c0.586,-0.3231 1.07,-0.7624 1.454,-1.3177c0.384,-0.5554 0.672,-1.1916 0.863,-1.9085c0.202,-0.727 0.303,-1.4995 0.303,-2.3174l0,-0.3484c0,-0.8078 -0.101,-1.5701 -0.303,-2.2871c-0.191,-0.727 -0.484,-1.3682 -0.878,-1.9236c-0.384,-0.5654 -0.869,-1.0097 -1.454,-1.3329c-0.576,-0.3231 -1.252,-0.4847 -2.03,-0.4847c-0.767,0 -1.444,0.1616 -2.0294,0.4847c-0.5756,0.3232 -1.0603,0.7675 -1.4541,1.3329c-0.3837,0.5554 -0.6715,1.1966 -0.8633,1.9236c-0.1919,0.717 -0.2878,1.4793 -0.2878,2.2871zm18.4176,-4.7711l0,13.132l-2.817,0l0,-16.3885l2.666,0l0.151,3.2565zm-0.575,4.3167l-1.303,-0.0454c0.01,-1.1208 0.157,-2.1558 0.44,-3.105c0.282,-0.9593 0.701,-1.7923 1.257,-2.4992c0.555,-0.7068 1.247,-1.2521 2.075,-1.6358c0.828,-0.3938 1.787,-0.5907 2.878,-0.5907c0.767,0 1.474,0.1111 2.12,0.3332c0.646,0.2121 1.207,0.5503 1.681,1.0148c0.475,0.4645 0.844,1.0603 1.106,1.7873c0.263,0.727 0.394,1.6055 0.394,2.6355l0,10.9206l-2.802,0l0,-10.7843c0,-0.8583 -0.147,-1.5449 -0.439,-2.0599c-0.283,-0.515 -0.687,-0.8886 -1.212,-1.1208c-0.525,-0.2424 -1.141,-0.3636 -1.848,-0.3636c-0.828,0 -1.52,0.1465 -2.075,0.4393c-0.556,0.2928 -1,0.6967 -1.333,1.2117c-0.333,0.515 -0.576,1.1057 -0.727,1.7721c-0.141,0.6564 -0.212,1.3531 -0.212,2.0902zm10.618,-1.5449l-1.879,0.5756c0.01,-0.8987 0.157,-1.7621 0.44,-2.5901c0.292,-0.828 0.712,-1.5651 1.257,-2.2114c0.555,-0.6462 1.237,-1.1561 2.045,-1.5297c0.807,-0.3838 1.731,-0.5756 2.771,-0.5756c0.879,0 1.656,0.1161 2.333,0.3484c0.687,0.2322 1.262,0.5907 1.727,1.0754c0.474,0.4745 0.833,1.0855 1.075,1.8327c0.242,0.7472 0.364,1.6358 0.364,2.6657l0,10.7692l-2.818,0l0,-10.7994c0,-0.9189 -0.146,-1.6308 -0.439,-2.1357c-0.283,-0.515 -0.687,-0.8734 -1.212,-1.0754c-0.515,-0.212 -1.131,-0.3181 -1.848,-0.3181c-0.615,0 -1.161,0.1061 -1.635,0.3181c-0.475,0.2121 -0.874,0.5049 -1.197,0.8785c-0.323,0.3635 -0.57,0.7826 -0.742,1.2572c-0.162,0.4745 -0.242,0.9794 -0.242,1.5146z"/>
   <path stroke="null" fill="#999999" d="m18.31161,17.62049c7.8058,-4.876 18.3373,-1.2645 13.9335,7.2685c-4.4038,8.5279 -44.6687,-7.2786 -28.1671,0.5766c16.5016,7.8552 22.8632,23.854 29.6164,8.7303c6.7532,-15.1237 14.8896,-47.8495 -7.994,-27.96108c-22.88353,19.88838 -17.13213,17.46558 -7.3888,11.38568z"/>
  </g>
 </g>
</svg>